<?xml version="1.0" standalone="no"?>
<!DOCTYPE svg PUBLIC "-//W3C//DTD SVG 20010904//EN"
 "http://www.w3.org/TR/2001/REC-SVG-20010904/DTD/svg10.dtd">
<svg version="1.0" xmlns="http://www.w3.org/2000/svg"
 width="512.000000pt" height="512.000000pt" viewBox="0 0 512.000000 512.000000"
 preserveAspectRatio="xMidYMid meet">
<metadata>
Created by potrace 1.14, written by Peter Selinger 2001-2017
</metadata>
<g transform="translate(0.000000,512.000000) scale(0.100000,-0.100000)"
fill="#000000" stroke="none">
<path d="M2395 4865 c-165 -36 -311 -126 -417 -255 -47 -58 -100 -159 -130
-246 l-23 -69 -2 -705 c-2 -574 0 -717 11 -770 58 -270 247 -473 516 -555 74
-22 237 -28 325 -10 274 53 495 263 564 535 18 71 19 117 18 790 l-2 715 -23
70 c-79 237 -247 406 -477 481 -96 32 -264 40 -360 19z"/>
<path d="M710 4465 c-29 -15 -85 -79 -148 -169 -44 -63 -122 -215 -122 -239 0
-7 -4 -17 -8 -23 -5 -5 -19 -45 -31 -89 -77 -284 -57 -580 55 -840 37 -86 99
-196 133 -234 12 -13 21 -27 21 -30 1 -12 92 -103 117 -116 50 -26 113 19 107
77 -1 15 -26 55 -56 90 -140 166 -221 342 -252 553 -13 87 -14 237 -1 310 3
22 8 51 11 65 25 155 126 365 228 475 38 41 63 82 61 100 -7 63 -64 97 -115
70z"/>
<path d="M4280 4468 c-63 -23 -67 -85 -9 -148 130 -145 228 -355 257 -555 9
-64 9 -254 0 -325 -24 -187 -124 -403 -257 -553 -28 -32 -52 -62 -52 -68 -1
-5 -2 -15 -3 -21 -4 -25 17 -57 47 -71 43 -21 77 -6 134 60 142 164 231 346
280 573 22 103 24 372 4 465 -53 247 -142 433 -280 586 -52 58 -81 72 -121 57z"/>
<path d="M912 4183 c-56 -11 -176 -223 -213 -379 -23 -94 -30 -254 -15 -349
10 -64 49 -182 82 -247 33 -66 120 -184 140 -192 50 -19 114 18 114 67 0 14
-20 53 -44 88 -74 109 -112 196 -129 294 -37 216 13 421 140 578 22 28 29 69
17 102 -5 13 -57 48 -66 44 -2 -1 -13 -4 -26 -6z"/>
<path d="M4095 4180 c-12 -4 -27 -16 -35 -25 -29 -35 -23 -65 29 -144 94 -143
130 -261 129 -424 0 -149 -42 -275 -133 -403 -51 -71 -60 -96 -43 -128 17 -31
39 -45 74 -46 43 0 92 56 169 193 23 42 78 187 71 187 -2 0 1 19 8 43 17 56
20 204 6 297 -15 104 -60 227 -116 321 -69 114 -112 149 -159 129z"/>
<path d="M1529 3741 l-24 -19 -2 -439 c-1 -469 2 -515 55 -663 112 -312 358
-552 670 -651 l72 -23 0 -173 0 -173 -855 0 -856 0 -25 -27 -24 -26 2 -673 c3
-631 4 -674 21 -691 17 -17 110 -18 1978 -18 l1960 0 19 25 c19 24 20 50 20
691 0 642 -1 668 -19 690 l-19 24 -861 3 -861 2 0 175 0 175 28 6 c109 24 276
108 380 191 117 93 233 240 295 373 35 74 76 210 85 279 4 31 7 251 7 489 l0
434 -24 19 c-32 26 -73 24 -105 -6 l-26 -24 -1 -413 c0 -453 -1 -461 -29 -566
-52 -189 -172 -366 -331 -485 -244 -184 -636 -216 -913 -75 -111 57 -242 167
-319 271 -71 95 -138 258 -153 372 -3 22 -7 51 -9 65 -2 14 -4 206 -4 428 l-1
403 -25 24 c-29 30 -74 32 -106 6z"/>
</g>
</svg>
